Run_40002
nRows=4
nColumns=164

# SIMM Motion File Header:
name Run_40002
datacolumns 164
datarows 4
otherdata 1
range 1.44000000 1.47000000
endheader
time	pelvis_tilt	pelvis_list	pelvis_rotation	pelvis_tx	pelvis_ty	pelvis_tz	hip_flexion_r	hip_adduction_r	hip_rotation_r	knee_angle_r	ankle_angle_r	hip_flexion_l	hip_adduction_l	hip_rotation_l	knee_angle_l	ankle_angle_l	lumbar_extension	lumbar_bending	lumbar_rotation	arm_flex_r	arm_add_r	arm_rot_r	elbow_flex_r	pro_sup_r	arm_flex_l	arm_add_l	arm_rot_l	elbow_flex_l	pro_sup_l	subtalar_angle_r	mtp_angle_r	subtalar_angle_l	mtp_angle_l	wrist_flex_r	wrist_dev_r	wrist_flex_l	wrist_dev_l	LASI_tx	LASI_ty	LASI_tz	RASI_tx	RASI_ty	RASI_tz	LPSI_tx	LPSI_ty	LPSI_tz	RPSI_tx	RPSI_ty	RPSI_tz	RTH1_tx	RTH1_ty	RTH1_tz	RTH2_tx	RTH2_ty	RTH2_tz	RTH3_tx	RTH3_ty	RTH3_tz	LTH1_tx	LTH1_ty	LTH1_tz	LTH2_tx	LTH2_ty	LTH2_tz	LTH3_tx	LTH3_ty	LTH3_tz	RTB1_tx	RTB1_ty	RTB1_tz	RTB2_tx	RTB2_ty	RTB2_tz	RTB3_tx	RTB3_ty	RTB3_tz	LTB1_tx	LTB1_ty	LTB1_tz	LTB2_tx	LTB2_ty	LTB2_tz	LTB3_tx	LTB3_ty	LTB3_tz	RCAL_tx	RCAL_ty	RCAL_tz	RTOE_tx	RTOE_ty	RTOE_tz	RMT5_tx	RMT5_ty	RMT5_tz	LCAL_tx	LCAL_ty	LCAL_tz	LTOE_tx	LTOE_ty	LTOE_tz	LMT5_tx	LMT5_ty	LMT5_tz	LACR_tx	LACR_ty	LACR_tz	RACR_tx	RACR_ty	RACR_tz	CLAV_tx	CLAV_ty	CLAV_tz	C7_tx	C7_ty	C7_tz	RUA1_tx	RUA1_ty	RUA1_tz	RUA2_tx	RUA2_ty	RUA2_tz	RUA3_tx	RUA3_ty	RUA3_tz	RLEL_tx	RLEL_ty	RLEL_tz	RMEL_tx	RMEL_ty	RMEL_tz	LUA1_tx	LUA1_ty	LUA1_tz	LUA2_tx	LUA2_ty	LUA2_tz	LUA3_tx	LUA3_ty	LUA3_tz	LLEL_tx	LLEL_ty	LLEL_tz	LMEL_tx	LMEL_ty	LMEL_tz	RFAsuperior_tx	RFAsuperior_ty	RFAsuperior_tz	RFAradius_tx	RFAradius_ty	RFAradius_tz	RFAulna_tx	RFAulna_ty	RFAulna_tz	LFAsuperior_tx	LFAsuperior_ty	LFAsuperior_tz	LFAradius_tx	LFAradius_ty	LFAradius_tz	LFAulna_tx	LFAulna_ty	LFAulna_tz
      1.44000000	    -13.28965015	     -4.75937349	      5.18696292	      0.90972687	      0.97849338	     -0.32442222	     50.94104433	      3.02817170	    -12.11323816	    -28.84005248	      6.88510243	     -9.53388782	     -2.52161458	      7.33077004	    -37.99302681	    -24.58228184	      1.23703420	      3.51772874	    -18.31893603	    -56.65613125	    -12.51097547	    -11.13601861	    100.77568322	     88.20638135	      2.10286759	    -29.17168806	      5.03893185	    131.09795929	    114.88801694	      0.00000000	      0.00000000	      0.00000000	      0.00000000	      0.00000000	      0.00000000	      0.00000000	      0.00000000	      0.90699987	      0.98668318	     -0.44765311	      0.92830841	      1.00995699	     -0.20963240	      0.76016771	      1.06299570	     -0.37258022	      0.75983768	      1.06322382	     -0.27129722	      0.95590144	      0.80648916	     -0.13865721	      1.05293683	      0.76971212	     -0.16259287	      1.05355571	      0.66196139	     -0.18380140	      0.79313643	      0.80103407	     -0.48059353	      0.79439043	      0.68527664	     -0.45855330	      0.68614229	      0.61788417	     -0.45097551	      1.15534818	      0.47999781	     -0.25434264	      1.13325164	      0.39478750	     -0.21028172	      1.16922398	      0.29395870	     -0.28021436	      0.56857178	      0.44543432	     -0.38665459	      0.50464179	      0.41806946	     -0.44914901	      0.39688271	      0.35863653	     -0.38413944	      1.09395881	      0.16433345	     -0.30326434	      1.30742331	      0.21679692	     -0.33278045	      1.28519629	      0.16009242	     -0.23682237	      0.26596128	      0.39695673	     -0.37900832	      0.28213378	      0.18207558	     -0.34032331	      0.23401303	      0.20477398	     -0.43691906	      0.95446201	      1.49040331	     -0.47148100	      0.90567729	      1.48950288	     -0.18793772	      1.00843984	      1.41345707	     -0.29559903	      0.88041240	      1.51501102	     -0.33894116	      0.79171841	      1.45232783	     -0.11461951	      0.73078217	      1.43454299	     -0.18303481	      0.68471833	      1.38771417	     -0.11344180	      0.61306426	      1.35951622	     -0.10775082	      0.61123933	      1.34659514	     -0.18589594	      0.93862933	      1.38170411	     -0.57226450	      0.88564297	      1.31345510	     -0.56841842	      0.95174218	      1.28565797	     -0.61422335	      0.95531826	      1.19869026	     -0.64848083	      0.91524332	      1.16371079	     -0.59368200	      0.66977068	      1.26046410	     -0.08132674	      0.75978853	      1.15922733	     -0.12110028	      0.69793990	      1.13057206	     -0.11457454	      1.03804319	      1.24911917	     -0.57777515	      1.08584865	      1.27179726	     -0.45225764	      1.14016789	      1.23966444	     -0.47728406
      1.45000000	    -12.79433534	     -4.24317526	      5.36983353	      0.91116642	      0.97689208	     -0.32481198	     47.49882616	      3.20573821	    -12.43738494	    -21.54828086	      7.01351605	     -8.85651346	     -1.75470573	      8.20077660	    -43.58453441	    -24.03989895	      0.62968506	      3.02068335	    -18.11325420	    -56.47527814	    -12.44041519	    -10.94440624	    101.16234987	     88.24624686	      1.35987296	    -29.08759459	      5.26257540	    130.74135553	    115.95997358	      0.00000000	      0.00000000	      0.00000000	      0.00000000	      0.00000000	      0.00000000	      0.00000000	      0.00000000	      0.90887730	      0.98653976	     -0.44829341	      0.92911932	      1.00851200	     -0.21006820	      0.76096730	      1.06130573	     -0.37204284	      0.76096337	      1.06025159	     -0.27107026	      0.95011106	      0.79551812	     -0.13902190	      1.04475061	      0.75351273	     -0.16397417	      1.04126833	      0.64620523	     -0.18431064	      0.79832230	      0.79839441	     -0.48040181	      0.80119165	      0.68272123	     -0.45854271	      0.69410927	      0.61386802	     -0.45122770	      1.15005254	      0.46893401	     -0.25618160	      1.13175823	      0.38299540	     -0.21196699	      1.17484996	      0.28510983	     -0.28223308	      0.57151089	      0.44592258	     -0.38689647	      0.51607232	      0.41780583	     -0.44955197	      0.39326275	      0.37256826	     -0.38536687	      1.10881119	      0.15052827	     -0.30706824	      1.31783488	      0.21949172	     -0.33309536	      1.29875050	      0.15968838	     -0.23793939	      0.26447981	      0.42017411	     -0.38145357	      0.26649485	      0.20481053	     -0.34370587	      0.22341116	      0.23071925	     -0.44175609	      0.95525864	      1.48824268	     -0.47131297	      0.90795676	      1.48779851	     -0.18744609	      1.00896979	      1.41144686	     -0.29568024	      0.88194688	      1.51436095	     -0.33834505	      0.79366130	      1.45036290	     -0.11301203	      0.73263114	      1.43233217	     -0.18173346	      0.68726208	      1.38560457	     -0.11163670	      0.61565077	      1.35621256	     -0.10598166	      0.61369290	      1.34347828	     -0.18403700	      0.93868677	      1.37954024	     -0.57242094	      0.88399747	      1.31249705	     -0.56813679	      0.94933122	      1.28349265	     -0.61441923	      0.95132433	      1.19694390	     -0.64880559	      0.91074006	      1.16254932	     -0.59398466	      0.67358535	      1.25778975	     -0.08026856	      0.76391732	      1.15717890	     -0.12104081	      0.70230514	      1.12805719	     -0.11423666	      1.03522090	      1.24504299	     -0.57735879	      1.08378028	      1.26530229	     -0.45228278	      1.13811492	      1.23338383	     -0.47813885
      1.46000000	    -12.25599819	     -3.72625735	      5.45718933	      0.91265324	      0.97421343	     -0.32520407	     44.43112903	      3.30788489	    -12.89033560	    -16.24449086	      7.07497233	     -8.02428529	     -1.06263885	      8.40540335	    -49.34223995	    -24.01319949	      0.06261687	      2.54830931	    -17.74758164	    -56.12501886	    -12.59336943	    -10.61725060	    101.58171770	     87.97050206	      0.34783223	    -29.01492703	      5.40332118	    130.02111484	    116.16074371	      0.00000000	      0.00000000	      0.00000000	      0.00000000	      0.00000000	      0.00000000	      0.00000000	      0.00000000	      0.91105656	      0.98517880	     -0.44906288	      0.92985462	      1.00594905	     -0.21069082	      0.76212426	      1.05792033	     -0.37177604	      0.76155870	      1.05635382	     -0.27097666	      0.94462357	      0.78551342	     -0.13930354	      1.03691156	      0.73831613	     -0.16476554	      1.03033848	      0.63232523	     -0.18442696	      0.80335996	      0.79530184	     -0.48075293	      0.80797908	      0.67935822	     -0.46068512	      0.70226917	      0.60887854	     -0.45179533	      1.14327359	      0.45800824	     -0.25705628	      1.12616056	      0.37131114	     -0.21352663	      1.17481888	      0.27590509	     -0.28348335	      0.57662406	      0.44511862	     -0.38722389	      0.52962955	      0.41715749	     -0.44961785	      0.39300482	      0.38573155	     -0.38634001	      1.11453878	      0.13781337	     -0.31055564	      1.32012396	      0.21802089	     -0.33239378	      1.30272442	      0.15570097	     -0.23848718	      0.26795179	      0.44266354	     -0.38288193	      0.25368080	      0.22754403	     -0.34725099	      0.21589078	      0.25726453	     -0.44646665	      0.95521389	      1.48504681	     -0.47087079	      0.90974012	      1.48488141	     -0.18690403	      1.00907719	      1.40833869	     -0.29584324	      0.88261852	      1.51262560	     -0.33777422	      0.79552361	      1.44701504	     -0.11078383	      0.73401595	      1.42881673	     -0.17932621	      0.68990880	      1.38123532	     -0.10868147	      0.61850529	      1.35045211	     -0.10283979	      0.61587284	      1.33823149	     -0.18077914	      0.93791625	      1.37674360	     -0.57264608	      0.88107497	      1.31119464	     -0.56810288	      0.94563365	      1.28068785	     -0.61472339	      0.94574856	      1.19460607	     -0.64956376	      0.90459898	      1.16073848	     -0.59477808	      0.67823464	      1.25302639	     -0.07828574	      0.76922495	      1.15353154	     -0.12026100	      0.70774175	      1.12372728	     -0.11313241	      1.03134079	      1.23949082	     -0.57774662	      1.08178238	      1.25691007	     -0.45324586	      1.13496509	      1.22410033	     -0.48007055
      1.47000000	    -11.77208872	     -3.31522429	      5.43734550	      0.91406185	      0.97031709	     -0.32559119	     41.97543352	      3.38514562	    -13.32642359	    -13.33182134	      7.53427263	     -6.93713823	     -0.55241680	      8.13587920	    -55.26087935	    -24.00577459	     -0.32779674	      2.21406960	    -17.20882091	    -55.63648932	    -12.98194134	    -10.21848967	    102.06548185	     87.40873621	     -0.90081847	    -28.92663434	      5.48217068	    128.94378437	    115.78477512	      0.00000000	      0.00000000	      0.00000000	      0.00000000	      0.00000000	      0.00000000	      0.00000000	      0.00000000	      0.91331436	      0.98249279	     -0.44980460	      0.93045627	      1.00211234	     -0.21127246	      0.76351573	      1.05291322	     -0.37192718	      0.76202279	      1.05147653	     -0.27112314	      0.94007973	      0.77659204	     -0.13996453	      1.03086417	      0.72574442	     -0.16495435	      1.02144267	      0.62107219	     -0.18479233	      0.80820571	      0.79125600	     -0.48153098	      0.81465653	      0.67487806	     -0.46366100	      0.71082091	      0.60258818	     -0.45274465	      1.13489231	      0.44659911	     -0.25757028	      1.11691035	      0.35897932	     -0.21518572	      1.16879730	      0.26510620	     -0.28462518	      0.58376964	      0.44301561	     -0.38810868	      0.54497741	      0.41641807	     -0.44938600	      0.39597561	      0.39803266	     -0.38736269	      1.11046159	      0.12457405	     -0.31345252	      1.31463958	      0.21118747	     -0.33095711	      1.29723257	      0.14725661	     -0.23819025	      0.27553180	      0.46401210	     -0.38312564	      0.24503128	      0.24995305	     -0.35142349	      0.21169686	      0.28395810	     -0.45088823	      0.95427827	      1.48090530	     -0.47033748	      0.91077863	      1.48075131	     -0.18623318	      1.00884714	      1.40424664	     -0.29610404	      0.88208825	      1.50953786	     -0.33699458	      0.79723982	      1.44214473	     -0.10798590	      0.73484107	      1.42377084	     -0.17576108	      0.69254443	      1.37456058	     -0.10467349	      0.62158178	      1.34236196	     -0.09834749	      0.61771915	      1.33095137	     -0.17619787	      0.93559336	      1.37339939	     -0.57281970	      0.87686001	      1.30928040	     -0.56819797	      0.94062433	      1.27735567	     -0.61522201	      0.93862807	      1.19177159	     -0.65066874	      0.89696102	      1.15840572	     -0.59592384	      0.68354541	      1.24624992	     -0.07525974	      0.77560393	      1.14841649	     -0.11870473	      0.71434985	      1.11767390	     -0.11118185	      1.02636837	      1.23266395	     -0.57921486	      1.07953245	      1.24663712	     -0.45496634	      1.13056419	      1.21208714	     -0.48306099
